<svg xmlns="http://www.w3.org/2000/svg" viewBox="0 0 347.76 425.76"><defs><style>.cls-1{fill:#fff;}</style></defs><title>Asset 1</title><g id="Layer_2" data-name="Layer 2"><g id="Layer_1-2" data-name="Layer 1"><path class="cls-1" d="M164.4,0H347.76V425.76H0V0H161l-7.78.24C147.36.43,141.5.83,136,3.15a42.65,42.65,0,0,0-12,7.27,43.31,43.31,0,0,0-9.38,12A23.46,23.46,0,0,0,111.32,33c-.14,4.87-.44,9.74-.53,14.62q-.17,10.14-.09,20.27a8,8,0,0,0,1.41,5.19c2.71,3.4,6.5,4.62,10.53,5a22,22,0,0,0,12.79-2c2.63-1.36,4.84-3.08,5.37-6.21a34.63,34.63,0,0,0,.5-4.64c.2-6.23.34-12.46.49-18.69,0-1.64,0-3.28.06-4.92a28.12,28.12,0,0,1,.38-3.55A8.2,8.2,0,0,1,150,31.44c6.59-.14,13.19-.29,19.78-.27,9.72,0,19.44.28,29.15.25,2.25,0,3.89.54,5.07,2.43.83,1.33,2.07,2.56,2.43,4a35.81,35.81,0,0,1,.9,7.67c.14,6.48,0,13,.12,19.44a35.72,35.72,0,0,0,.49,5.36,6.27,6.27,0,0,0,2.68,4.32A17.89,17.89,0,0,0,219.72,78a28,28,0,0,0,12.33-1.46c2.21-.86,4.26-2.13,5.09-4.49a16,16,0,0,0,1-5.13c0-9,0-18-.19-27-.1-4.16-.36-8.33-2-12.3A45.71,45.71,0,0,0,223.62,10C219.55,6.53,214.84,4.18,210,2c-1.51-.7-2.92-1.58-4.75-1.58C192.13.35,179,.23,165.82.13A13.62,13.62,0,0,1,164.4,0ZM95.72,14.78c-1.37.24-2.62.39-3.84.68-5.82,1.41-11.65,2.76-17.43,4.32-4,1.09-8.07,2.35-12,3.75-5.26,1.86-10.52,3.74-15.64,5.94A109.3,109.3,0,0,0,24.46,42.09,75.5,75.5,0,0,0,9.56,56.85c-5.44,7.1-8,15.28-8.73,24a133.12,133.12,0,0,0-.25,20.85,71.83,71.83,0,0,0,2.75,16.42,37.94,37.94,0,0,0,7.17,13.14c2.2,2.64,4.6,5.11,6.89,7.68a2.39,2.39,0,0,1,.63,1.22c.34,2.82.62,5.64.9,8.46.4,4,.78,7.94,1.19,11.9.48,4.6,1,9.19,1.47,13.79.25,2.42.44,4.85.69,7.27.47,4.47,1,8.94,1.45,13.42.27,2.58.46,5.17.72,7.75.47,4.6,1,9.2,1.46,13.81.25,2.42.44,4.84.69,7.26.47,4.41,1,8.82,1.43,13.23.27,2.61.46,5.24.73,7.86.46,4.53,1,9.05,1.45,13.58.41,3.93.76,7.86,1.17,11.79.48,4.51,1,9,1.46,13.54.28,2.62.46,5.25.72,7.87.48,4.73,1,9.45,1.47,14.17.24,2.38.43,4.77.67,7.15.63,6.19,1.3,12.38,1.92,18.57.48,4.77.89,9.55,1.39,14.32.52,5,1.08,10,1.71,15,.66,5.23,1.27,10.47,3.47,15.36a53.54,53.54,0,0,0,7,11.67A67.42,67.42,0,0,0,70,403.76a101.53,101.53,0,0,0,17.75,8.35q6.62,2.34,13.32,4.39c3.55,1.09,7.15,2.08,10.77,2.93,3.86.91,7.75,1.68,11.66,2.38,4.7.85,9.4,1.81,14.14,2.28,6.52.66,13.08,1.22,19.62,1.26,13.68.07,27.35-.21,41-.41a74.92,74.92,0,0,0,7.77-.53q7.59-.89,15.16-2c3.46-.51,6.92-1.06,10.32-1.83,5-1.13,10-2.32,14.89-3.77,5.22-1.55,10.36-3.4,15.51-5.2a95.28,95.28,0,0,0,15.92-7.53,74.68,74.68,0,0,0,12.34-8.75,59.89,59.89,0,0,0,10.55-12.28c3.6-5.48,5.27-11.53,6-17.92.36-3.05.75-6.09,1.11-9.14.5-4.12,1-8.25,1.48-12.37.41-3.65.78-7.3,1.17-10.94.49-4.6,1-9.19,1.49-13.78.24-2.31.42-4.61.66-6.91.49-4.64,1-9.27,1.5-13.91.25-2.42.44-4.85.68-7.27.48-4.64,1-9.28,1.47-13.93.25-2.42.44-4.85.69-7.27.48-4.72,1-9.45,1.48-14.18.22-2.14.35-4.29.58-6.43.49-4.65,1-9.28,1.53-13.93.41-3.88.72-7.78,1.12-11.67.64-6.18,1.35-12.36,2-18.54.49-4.85.92-9.7,1.38-14.55.16-1.71.3-3.42.49-5.12.51-4.72,1-9.44,1.56-14.16.31-2.81.6-5.63.87-8.44.62-6.44,1.21-12.89,1.86-19.32a6.29,6.29,0,0,1,.77-3c2.33-3.13,5-6,7.26-9.2a72.28,72.28,0,0,0,5.75-9.34,37.81,37.81,0,0,0,3.46-14.53,162.87,162.87,0,0,0-.39-30.91A39,39,0,0,0,344,65.69a54,54,0,0,0-8.81-13.82,59.44,59.44,0,0,0-14.94-12.2c-5.51-3.3-11.23-6.28-17-9.18-3.51-1.78-7.2-3.23-10.87-4.67s-7.28-2.7-11-3.91c-3.38-1.11-6.8-2.09-10.23-3.05-2.37-.66-4.77-1.22-7.17-1.77-3.26-.74-6.54-1.43-9.81-2.11a14.53,14.53,0,0,0-1.93-.13c.36,1,.61,1.76.92,2.51A54.21,54.21,0,0,1,256.76,31c.52,3.7.73,7.46,1,11.2.07,1.08.56,1.48,1.55,1.74,3.35.85,6.7,1.7,10,2.73,4.71,1.47,9.41,3,14,4.67,3.7,1.35,7.36,2.87,10.94,4.54a75.08,75.08,0,0,1,14.09,8.43c4.24,3.26,8,6.93,10.34,11.83,2.61,5.51,2.42,10.92-1,16.07a49.59,49.59,0,0,1-10.63,11,64.78,64.78,0,0,1-15.34,8.86c-4.13,1.72-8.28,3.4-12.51,4.85-5,1.7-10,3.22-15,4.64-3.63,1-7.32,1.83-11,2.6-4.56,1-9.13,1.87-13.72,2.64-4.95.83-9.92,1.56-14.91,2.16q-8.43,1-16.89,1.7c-4.94.4-9.9.63-14.85.84-12,.51-24,.6-36,0-6.53-.31-13.06-.81-19.58-1.26-2.43-.17-4.86-.39-7.28-.68-5.22-.62-10.44-1.29-15.66-2-2-.27-4-.56-6-.9s-4.12-.81-6.19-1.21c-3.12-.62-6.27-1.14-9.37-1.86s-6.28-1.64-9.41-2.48c-2.83-.76-5.7-1.39-8.47-2.33-4.76-1.61-9.48-3.36-14.17-5.16a92.27,92.27,0,0,1-16.26-8.16c-5.26-3.34-10.15-7.12-13.49-12.53-4-6.43-3.69-12.7-.16-19a28.94,28.94,0,0,1,6.67-7.72,64.58,64.58,0,0,1,13.2-8.49q5-2.49,10.15-4.61c3.9-1.6,7.84-3.13,11.85-4.46,4.89-1.61,9.86-3,14.79-4.46,1-.31,2-.7,2.28-1.93.33-1.6.65-3.2.92-4.81.69-4.07,1.19-8.18,2.08-12.2C93.45,21.88,94.64,18.47,95.72,14.78Z"/><path d="M164.4,0a13.62,13.62,0,0,0,1.42.13c13.16.1,26.31.22,39.47.25,1.83,0,3.24.88,4.75,1.58,4.8,2.22,9.51,4.57,13.58,8.06a45.71,45.71,0,0,1,12.31,17.57c1.67,4,1.93,8.14,2,12.3.21,9,.23,18,.19,27a16,16,0,0,1-1,5.13c-.83,2.36-2.88,3.63-5.09,4.49A28,28,0,0,1,219.72,78a17.89,17.89,0,0,1-9.15-3.31,6.27,6.27,0,0,1-2.68-4.32A35.72,35.72,0,0,1,207.4,65c-.08-6.48,0-13-.12-19.44a35.81,35.81,0,0,0-.9-7.67c-.36-1.45-1.6-2.68-2.43-4-1.18-1.89-2.82-2.44-5.07-2.43-9.71,0-19.43-.22-29.15-.25-6.59,0-13.19.13-19.78.27a8.2,8.2,0,0,0-7.72,6.65,28.12,28.12,0,0,0-.38,3.55c-.07,1.64,0,3.28-.06,4.92-.15,6.23-.29,12.46-.49,18.69a34.63,34.63,0,0,1-.5,4.64c-.53,3.13-2.74,4.85-5.37,6.21a22,22,0,0,1-12.79,2c-4-.43-7.82-1.65-10.53-5a8,8,0,0,1-1.41-5.19q-.08-10.13.09-20.27c.09-4.88.39-9.75.53-14.62a23.46,23.46,0,0,1,3.28-10.64,43.31,43.31,0,0,1,9.38-12,42.65,42.65,0,0,1,12-7.27C141.5.83,147.36.43,153.26.24L161,0Z"/><path d="M95.72,14.78c-1.08,3.69-2.27,7.1-3,10.6-.89,4-1.39,8.13-2.08,12.2-.27,1.61-.59,3.21-.92,4.81-.24,1.23-1.23,1.62-2.28,1.93-4.93,1.48-9.9,2.85-14.79,4.46-4,1.33-8,2.86-11.85,4.46q-5.16,2.11-10.15,4.61a64.58,64.58,0,0,0-13.2,8.49,28.94,28.94,0,0,0-6.67,7.72c-3.53,6.29-3.8,12.56.16,19,3.34,5.41,8.23,9.19,13.49,12.53a92.27,92.27,0,0,0,16.26,8.16c4.69,1.8,9.41,3.55,14.17,5.16,2.77.94,5.64,1.57,8.47,2.33,3.13.84,6.25,1.75,9.41,2.48s6.25,1.24,9.37,1.86c2.07.4,4.12.85,6.19,1.21s4,.63,6,.9c5.22.67,10.44,1.34,15.66,2,2.42.29,4.85.51,7.28.68,6.52.45,13,1,19.58,1.26,12,.57,24,.48,36,0,4.95-.21,9.91-.44,14.85-.84q8.46-.69,16.89-1.7c5-.6,10-1.33,14.91-2.16,4.59-.77,9.16-1.68,13.72-2.64,3.68-.77,7.37-1.58,11-2.6,5.05-1.42,10.08-2.94,15-4.64,4.23-1.45,8.38-3.13,12.51-4.85a64.78,64.78,0,0,0,15.34-8.86,49.59,49.59,0,0,0,10.63-11c3.45-5.15,3.64-10.56,1-16.07-2.31-4.9-6.1-8.57-10.34-11.83a75.08,75.08,0,0,0-14.09-8.43c-3.58-1.67-7.24-3.19-10.94-4.54-4.63-1.69-9.33-3.2-14-4.67-3.3-1-6.65-1.88-10-2.73-1-.26-1.48-.66-1.55-1.74-.27-3.74-.48-7.5-1-11.2a54.21,54.21,0,0,0-3.57-13.68c-.31-.75-.56-1.53-.92-2.51a14.53,14.53,0,0,1,1.93.13c3.27.68,6.55,1.37,9.81,2.11,2.4.55,4.8,1.11,7.17,1.77,3.43,1,6.85,1.94,10.23,3.05,3.69,1.21,7.36,2.5,11,3.91s7.36,2.89,10.87,4.67c5.74,2.9,11.46,5.88,17,9.18a59.44,59.44,0,0,1,14.94,12.2A54,54,0,0,1,344,65.69a39,39,0,0,1,2.71,10.59,162.87,162.87,0,0,1,.39,30.91,37.81,37.81,0,0,1-3.46,14.53,72.28,72.28,0,0,1-5.75,9.34c-2.26,3.18-4.93,6.07-7.26,9.2a6.29,6.29,0,0,0-.77,3c-.65,6.43-1.24,12.88-1.86,19.32-.27,2.81-.56,5.63-.87,8.44-.51,4.72-1.05,9.44-1.56,14.16-.19,1.7-.33,3.41-.49,5.12-.46,4.85-.89,9.7-1.38,14.55-.63,6.18-1.34,12.36-2,18.54-.4,3.89-.71,7.79-1.12,11.67-.48,4.65-1,9.28-1.53,13.93-.23,2.14-.36,4.29-.58,6.43-.48,4.73-1,9.46-1.48,14.18-.25,2.42-.44,4.85-.69,7.27-.47,4.65-1,9.29-1.47,13.93-.24,2.42-.43,4.85-.68,7.27-.49,4.64-1,9.27-1.5,13.91-.24,2.3-.42,4.6-.66,6.91-.49,4.59-1,9.18-1.49,13.78-.39,3.64-.76,7.29-1.17,10.94-.47,4.12-1,8.25-1.48,12.37-.36,3.05-.75,6.09-1.11,9.14-.75,6.39-2.42,12.44-6,17.92a59.89,59.89,0,0,1-10.55,12.28,74.68,74.68,0,0,1-12.34,8.75,95.28,95.28,0,0,1-15.92,7.53c-5.15,1.8-10.29,3.65-15.51,5.2-4.91,1.45-9.9,2.64-14.89,3.77-3.4.77-6.86,1.32-10.32,1.83q-7.56,1.1-15.16,2a74.92,74.92,0,0,1-7.77.53c-13.68.2-27.35.48-41,.41-6.54,0-13.1-.6-19.62-1.26-4.74-.47-9.44-1.43-14.14-2.28-3.91-.7-7.8-1.47-11.66-2.38-3.62-.85-7.22-1.84-10.77-2.93q-6.7-2.06-13.32-4.39A101.53,101.53,0,0,1,70,403.76a67.42,67.42,0,0,1-18.82-15.83,53.54,53.54,0,0,1-7-11.67c-2.2-4.89-2.81-10.13-3.47-15.36-.63-5-1.19-10-1.71-15-.5-4.77-.91-9.55-1.39-14.32-.62-6.19-1.29-12.38-1.92-18.57-.24-2.38-.43-4.77-.67-7.15-.48-4.72-1-9.44-1.47-14.17-.26-2.62-.44-5.25-.72-7.87-.46-4.51-1-9-1.46-13.54-.41-3.93-.76-7.86-1.17-11.79-.47-4.53-1-9-1.45-13.58-.27-2.62-.46-5.25-.73-7.86-.45-4.41-1-8.82-1.43-13.23-.25-2.42-.44-4.84-.69-7.26-.48-4.61-1-9.21-1.46-13.81-.26-2.58-.45-5.17-.72-7.75-.47-4.48-1-8.95-1.45-13.42-.25-2.42-.44-4.85-.69-7.27-.48-4.6-1-9.19-1.47-13.79-.41-4-.79-7.93-1.19-11.9-.28-2.82-.56-5.64-.9-8.46a2.39,2.39,0,0,0-.63-1.22c-2.29-2.57-4.69-5-6.89-7.68a37.94,37.94,0,0,1-7.17-13.14A71.83,71.83,0,0,1,.58,101.73,133.12,133.12,0,0,1,.83,80.88c.73-8.75,3.29-16.93,8.73-24a75.5,75.5,0,0,1,14.9-14.76A109.3,109.3,0,0,1,46.79,29.47c5.12-2.2,10.38-4.08,15.64-5.94,3.95-1.4,8-2.66,12-3.75,5.78-1.56,11.61-2.91,17.43-4.32C93.1,15.17,94.35,15,95.72,14.78ZM108,357h.16c-.22-3-.43-5.9-.67-8.84-.2-2.51-.4-5-.66-7.52-.46-4.41-1-8.81-1.44-13.22-.4-3.8-.73-7.62-1.13-11.43-.64-6.14-1.34-12.27-2-18.42-.49-4.84-.92-9.7-1.37-14.54-.17-1.71-.31-3.42-.5-5.13-.51-4.76-1.06-9.51-1.56-14.28-.38-3.73-.66-7.47-1.06-11.19-.79-7.3-1.65-14.59-2.46-21.89-.73-6.53-1.43-13.07-2.16-19.6-.56-4.91-1.12-9.82-1.73-14.72-.57-4.59-1.14-9.17-1.83-13.74a9.74,9.74,0,0,0-1.49-4.46c-3.58-4.93-7.76-9-13.87-10.63-3.08-.82-6.07-1-8.77,1-1.52,1.15-3.36,2.21-3.62,4.28a42,42,0,0,0-.28,7.6c.27,4.45.82,8.88,1.24,13.32.3,3.3.55,6.61.87,9.91.4,4.05.87,8.08,1.28,12.13.32,3.14.56,6.29.88,9.43.4,4,.87,7.92,1.28,11.88.47,4.46.89,8.91,1.36,13.36.41,3.88.88,7.76,1.29,11.64.31,3,.56,6,.88,9.07.4,3.76.87,7.52,1.27,11.28.32,3,.56,6,.88,8.95.41,3.84.88,7.66,1.29,11.5.32,2.86.56,5.73.89,8.58.38,3.41.85,6.8,1.23,10.21.48,4.33.88,8.66,1.37,13,.54,4.75,1.13,9.5,1.71,14.26.33,2.69.53,5.4,1,8.06a19.09,19.09,0,0,0,14.84,14.31,12.1,12.1,0,0,0,11.26-4.07,5.16,5.16,0,0,0,1.55-3.5C108.06,361.43,108,359.23,108,357ZM287.42,177.57h-.19c0-1.44.09-2.88,0-4.31a4.43,4.43,0,0,0-.79-2.18,10,10,0,0,0-9.58-4,17.65,17.65,0,0,0-7.76,2.74c-5.29,3.42-9.43,7.59-10,14.34-.47,5.13-1.2,10.23-1.81,15.34-.16,1.34-.34,2.69-.51,4-.52,4.23-1.06,8.47-1.55,12.71-.42,3.56-.77,7.13-1.18,10.69-.47,4.12-1,8.22-1.45,12.34-.28,2.42-.45,4.84-.71,7.26-.48,4.48-1,9-1.48,13.44-.36,3.38-.68,6.75-1,10.13-.51,4.88-1.06,9.75-1.56,14.63-.48,4.69-.91,9.39-1.38,14.08-.43,4.2-.9,8.4-1.32,12.6-.31,3.07-.54,6.14-.85,9.2-.39,3.75-.88,7.5-1.24,11.26-.5,5.33-.94,10.66-1.38,16-.39,4.66-.83,9.31-1.06,14a7,7,0,0,0,.91,4c3.54,5.55,8.38,6.62,14.21,4.77a19.57,19.57,0,0,0,10.31-7.83,14.51,14.51,0,0,0,2.6-5.93c.24-1.49.39-3,.58-4.5.52-4.07,1.07-8.14,1.56-12.22.41-3.44.76-6.89,1.15-10.33.49-4.24,1-8.46,1.48-12.7.27-2.42.46-4.84.73-7.26.47-4.36,1-8.72,1.46-13.08.25-2.3.43-4.61.68-6.91.48-4.48,1-9,1.48-13.45.24-2.3.43-4.6.67-6.9.48-4.49,1-9,1.47-13.46.41-3.88.77-7.77,1.18-11.66.47-4.52,1-9,1.46-13.54.24-2.38.37-4.78.61-7.16.65-6.3,1.34-12.6,2-18.9.44-4.33.86-8.66,1.23-13C286.68,187,287,182.3,287.42,177.57Zm-99,106.83h-.06c0-14.36.06-28.72,0-43.07-.09-16.8.3-33.6-.89-50.38a6.81,6.81,0,0,0-2.08-4.86c-1.54-1.41-3.09-2.89-5.21-3.12a76.59,76.59,0,0,0-9-.45,11.34,11.34,0,0,0-8.51,3.84,6.46,6.46,0,0,0-1.77,4.13c-.27,4.11-.67,8.21-.72,12.32-.22,16.48-.42,33-.47,49.44q-.12,48.58-.06,97.19c0,7.28.27,14.55.49,21.83a12.83,12.83,0,0,0,2.8,8.28c3.7,4.35,10.58,6,16.33,4,3.52-1.24,6-3.69,8.16-6.53a4.46,4.46,0,0,0,1-2.95Q188.38,329.22,188.4,284.4Z"/><path class="cls-1" d="M108,357c0,2.19,0,4.39,0,6.58a5.16,5.16,0,0,1-1.55,3.5,12.1,12.1,0,0,1-11.26,4.07,19.09,19.09,0,0,1-14.84-14.31c-.5-2.66-.7-5.37-1-8.06-.58-4.76-1.17-9.51-1.71-14.26-.49-4.33-.89-8.66-1.37-13-.38-3.41-.85-6.8-1.23-10.21-.33-2.85-.57-5.72-.89-8.58-.41-3.84-.88-7.66-1.29-11.5-.32-3-.56-6-.88-8.95-.4-3.76-.87-7.52-1.27-11.28-.32-3-.57-6.05-.88-9.07-.41-3.88-.88-7.76-1.29-11.64-.47-4.45-.89-8.9-1.36-13.36-.41-4-.88-7.92-1.28-11.88-.32-3.14-.56-6.29-.88-9.43-.41-4-.88-8.08-1.28-12.13-.32-3.3-.57-6.61-.87-9.91-.42-4.44-1-8.87-1.24-13.32a42,42,0,0,1,.28-7.6c.26-2.07,2.1-3.13,3.62-4.28,2.7-2,5.69-1.82,8.77-1,6.11,1.63,10.29,5.7,13.87,10.63a9.74,9.74,0,0,1,1.49,4.46c.69,4.57,1.26,9.15,1.83,13.74.61,4.9,1.17,9.81,1.73,14.72.73,6.53,1.43,13.07,2.16,19.6.81,7.3,1.67,14.59,2.46,21.89.4,3.72.68,7.46,1.06,11.19.5,4.77,1,9.52,1.56,14.28.19,1.71.33,3.42.5,5.13.45,4.84.88,9.7,1.37,14.54.63,6.15,1.33,12.28,2,18.42.4,3.81.73,7.63,1.13,11.43.46,4.41,1,8.81,1.44,13.22.26,2.5.46,5,.66,7.52.24,2.94.45,5.89.67,8.84Z"/><path class="cls-1" d="M287.42,177.57c-.38,4.73-.74,9.47-1.16,14.2-.37,4.33-.79,8.66-1.23,13-.64,6.3-1.33,12.6-2,18.9-.24,2.38-.37,4.78-.61,7.16-.47,4.51-1,9-1.46,13.54-.41,3.89-.77,7.78-1.18,11.66-.47,4.49-1,9-1.47,13.46-.24,2.3-.43,4.6-.67,6.9-.49,4.49-1,9-1.48,13.45-.25,2.3-.43,4.61-.68,6.91-.48,4.36-1,8.72-1.46,13.08-.27,2.42-.46,4.84-.73,7.26-.47,4.24-1,8.46-1.48,12.7-.39,3.44-.74,6.89-1.15,10.33-.49,4.08-1,8.15-1.56,12.22-.19,1.5-.34,3-.58,4.5a14.51,14.51,0,0,1-2.6,5.93,19.57,19.57,0,0,1-10.31,7.83c-5.83,1.85-10.67.78-14.21-4.77a7,7,0,0,1-.91-4c.23-4.66.67-9.31,1.06-14,.44-5.33.88-10.66,1.38-16,.36-3.76.85-7.51,1.24-11.26.31-3.06.54-6.13.85-9.2.42-4.2.89-8.4,1.32-12.6.47-4.69.9-9.39,1.38-14.08.5-4.88,1-9.75,1.56-14.63.36-3.38.68-6.75,1-10.13.48-4.48,1-9,1.48-13.44.26-2.42.43-4.84.71-7.26.46-4.12,1-8.22,1.45-12.34.41-3.56.76-7.13,1.18-10.69.49-4.24,1-8.48,1.55-12.71.17-1.34.35-2.69.51-4,.61-5.11,1.34-10.21,1.81-15.34.61-6.75,4.75-10.92,10-14.34a17.65,17.65,0,0,1,7.76-2.74,10,10,0,0,1,9.58,4,4.43,4.43,0,0,1,.79,2.18c.12,1.43,0,2.87,0,4.31Z"/><path class="cls-1" d="M188.4,284.4q0,44.82,0,89.64a4.46,4.46,0,0,1-1,2.95c-2.2,2.84-4.64,5.29-8.16,6.53-5.75,2-12.63.38-16.33-4a12.83,12.83,0,0,1-2.8-8.28c-.22-7.28-.48-14.55-.49-21.83q0-48.6.06-97.19c.05-16.48.25-33,.47-49.44.05-4.11.45-8.21.72-12.32a6.46,6.46,0,0,1,1.77-4.13,11.34,11.34,0,0,1,8.51-3.84,76.59,76.59,0,0,1,9,.45c2.12.23,3.67,1.71,5.21,3.12a6.81,6.81,0,0,1,2.08,4.86c1.19,16.78.8,33.58.89,50.38.07,14.35,0,28.71,0,43.07Z"/></g></g></svg>
